<?xml version="1.0" encoding="utf-8"?>
<!-- Generator: Adobe Illustrator 22.0.1, SVG Export Plug-In . SVG Version: 6.00 Build 0)  -->
<svg version="1.1" id="Laag_1" xmlns="http://www.w3.org/2000/svg" xmlns:xlink="http://www.w3.org/1999/xlink" x="0px" y="0px"
	 viewBox="0 0 1201 182.2" style="enable-background:new 0 0 1201 182.2;" xml:space="preserve">
<style type="text/css">
	.st0{opacity:0.8;fill:#FFDF5C;enable-background:new    ;}
	.st1{opacity:0.5;fill:#971C80;enable-background:new    ;}
	.st2{opacity:0.9;fill:#971C80;enable-background:new    ;}
	.st3{fill:none;}
	.st4{fill:#FFFFFF;}
	.st5{font-family:'MuseoSans-500';}
	.st6{font-size:20px;}
	.st7{letter-spacing:2;}
	.st8{enable-background:new    ;}
	.st9{opacity:0.8;fill:#FFDF5C;stroke:#FFDF5C;stroke-miterlimit:10;enable-background:new    ;}
	.st10{fill:none;stroke:#FFFFFF;stroke-miterlimit:10;}
	.st11{font-size:18px;}
</style>
<image style="overflow:visible;enable-background:new    ;" width="343" height="175" xlink:href="verhaal84.jpg"  transform="matrix(1.7485 0 0 1.7485 0 -60.358)">
</image>
<image style="overflow:visible;opacity:0.8;enable-background:new    ;" width="343" height="175" xlink:href="verhaal86.jpg"  transform="matrix(1.7522 0 0 1.7441 599.9836 8.443245e-02)">
</image>
<rect x="-21" y="391.9" class="st0" width="1201" height="248.2"/>
<rect y="-0.4" class="st1" width="1201" height="182.6"/>
<rect x="21.5" y="19.2" class="st2" width="1158.4" height="144.1"/>
<rect x="80.2" y="68.1" class="st3" width="1005.3" height="167.1"/>
<text transform="matrix(1 0 0 1 80.1915 82.2574)" class="st4 st5 st6 st7">WOW! 99 VERHALEN OM TE LEZEN IN HET VLIEGTUIG</text>
<text transform="matrix(1 0 0 1 80.1915 82.2574)" class="st8"><tspan x="0" y="0" class="st9 st5 st6 st7">WOW!</tspan><tspan x="68.7" y="0" class="st10 st5 st6 st7"> 99 VERHALEN OM TE LEZEN IN HET VLIEGTUIG</tspan></text>
<text transform="matrix(1 0 0 1 80.1915 113.0574)" class="st4 st5 st11">ALS DANK VOOR UW VLUCHT BIJ WOW AIR</text>
<image style="overflow:visible;enable-background:new    ;" width="228" height="606" xlink:href="../../../Desktop/school 2018/Project WEB/Week 2/wowclub-lady-3.min.png"  transform="matrix(0.9304 0 0 0.9304 874.4251 -10.5019)">
</image>
</svg>
