<?xml version="1.0" encoding="utf-8"?>
<!-- Generator: Adobe Illustrator 22.0.1, SVG Export Plug-In . SVG Version: 6.00 Build 0)  -->
<svg version="1.1" id="Capa_1" xmlns="http://www.w3.org/2000/svg" xmlns:xlink="http://www.w3.org/1999/xlink" x="0px" y="0px"
	 viewBox="0 0 428.3 405.2" style="enable-background:new 0 0 428.3 405.2;" xml:space="preserve">
<style type="text/css">
	.st0{fill:#961B80;}
	.st1{fill:none;stroke:#FFFFFF;stroke-width:14.2289;stroke-miterlimit:10;}
</style>
<g>
	<circle class="st0" cx="212.7" cy="202.6" r="202.6"/>
	<path class="st1" d="M325.3,180.2c0-31.4-25.4-56.8-56.8-56.8c-23.6,0-43.8,14.4-52.4,34.8c-8.6-20.5-28.8-34.8-52.4-34.8
		c-31.4,0-56.8,25.4-56.8,56.8c0,14.2,5.2,27.1,13.8,37.1l0.6,0.7c1.4,1.6,2.9,3,4.4,4.4l91.4,91.6c0,0,94.8-96.9,98.7-102.7
		l0.1-0.1C316.1,211.3,325.3,191.7,325.3,180.2z"/>
</g>
</svg>
