<?xml version="1.0" encoding="utf-8"?>
<!-- Generator: Adobe Illustrator 22.0.1, SVG Export Plug-In . SVG Version: 6.00 Build 0)  -->
<svg version="1.1" id="Laag_1" xmlns="http://www.w3.org/2000/svg" xmlns:xlink="http://www.w3.org/1999/xlink" x="0px" y="0px"
	 viewBox="0 0 4526.9 1386.7" style="enable-background:new 0 0 4526.9 1386.7;" xml:space="preserve">
<style type="text/css">
	.st0{fill:#FFFFFF;}
	.st1{opacity:0.5;fill:#FFFFFF;}
	.st2{fill:#575756;}
	.st3{opacity:5.000000e-02;}
	.st4{font-family:'Georgia';}
	.st5{font-size:561.637px;}
	.st6{font-size:517.952px;}
	.st7{font-size:464.2585px;}
</style>
<path class="st0" d="M316.9,858.7c0-27.4,5.1-51.1,15.4-71.2c10.3-20.1,23.6-36.6,40.1-49.4c16.6-12.9,35.3-22.4,56-28.8
	c20.7-6.3,42.1-9.5,64.2-9.5h133.3v16.1c-4.4,0-10.1,0.4-17.1,1.2c-7,0.8-11.7,1.8-13.9,2.8c-4.5,2-7.8,4.9-9.9,8.7
	c-2,3.9-3.1,8.5-3.1,13.9v232.1c0,5.1,0.9,9.7,2.6,13.8c1.7,4.1,5.2,7.3,10.3,9.7c4.7,2.3,9.7,3.9,15.2,5c5.4,1.1,10.1,1.7,14.1,2
	v16.1H483.5c-19.4,0-38.4-3-57.1-9c-18.7-6-35.1-14-49-24.1c-18.9-13.5-33.7-31.1-44.4-52.8C322.2,913.8,316.9,888.2,316.9,858.7z
	 M372.4,858.9c0,21.6,2.9,41.1,8.6,58.6c5.7,17.4,14.1,32.7,25.2,45.6c10.4,12.4,23.2,22.1,38.4,29.2s32.1,10.6,50.7,10.6
	c6.2,0,13.2-0.1,21-0.3c7.8-0.2,13.6-0.4,17.3-0.6V754.9c0-13.7-4-23.3-12-28.5c-8-5.3-20.3-7.9-37-7.9c-19.2,0-36,3.4-50.3,10.2
	c-14.4,6.8-26,16.2-34.9,28.3c-9.4,12.7-16.2,27.4-20.5,44C374.6,817.7,372.4,837,372.4,858.9z"/>
<path class="st0" d="M831.8,331.8c9.4-17.8,21.9-32,37.6-42.6c15.7-10.6,33.8-15.9,54.2-15.9c18,0,33.7,3.2,47.3,9.5
	c13.5,6.3,24.7,15,33.4,25.8c8.8,10.9,15.3,23.6,19.6,38.1c4.3,14.5,6.5,29.8,6.5,46c0,14.5-2.3,28.7-6.9,42.7
	c-4.6,14-11.4,26.6-20.3,37.7c-8.6,10.7-19.3,19.4-32.1,26c-12.8,6.6-27.1,9.9-43,9.9c-16.3,0-30.3-2.6-41.9-7.7
	c-11.6-5.1-21.1-12.2-28.3-21.1c-6.9-8.5-12.1-18.4-15.5-29.9c-3.4-11.5-5.1-24-5.1-37.4v-15h148c0-14.7-1.4-28-4.2-40
	c-2.8-12-7.2-22.5-13.3-31.6c-5.9-8.8-13.6-15.7-23.1-20.8c-9.5-5.1-20.9-7.6-34-7.6c-13.4,0-25,3.2-34.8,9.5s-19.2,17.7-28.2,34.1
	L831.8,331.8z M881.9,417c0,8.4,0.7,17.5,2.2,27.1c1.4,9.6,3.7,17.7,6.9,24.2c3.5,6.9,8.2,12.6,14.3,16.9c6,4.4,13.8,6.6,23.3,6.6
	c15.9,0,29.1-6.6,39.6-19.8c10.5-13.2,16.2-31.5,17.1-55H881.9z"/>
<path class="st1" d="M1111.2,686c14.5-2.6,28.2-7.8,41.3-15.7c13-7.9,24.2-21.8,33.5-41.7c19-43.1,38.6-88.1,58.9-134.9
	c20.3-46.8,41.4-96,63.2-147.4c6.4-14.8,13.3-32.3,20.5-52.6c7.2-20.3,13.9-39.7,20-58.4h37.6c30.6,75.6,58.7,144.6,84.5,206.8
	c25.7,62.3,52.5,126,80.1,191.4c6.4,14.8,16.8,26.3,31.1,34.5c14.3,8.2,28.7,13.4,43.2,15.7v31.9h-220.2v-33.8
	c9.7-0.3,21.7-2.3,36.2-6c14.5-3.7,21.7-8.7,21.7-15.2c0-1-0.8-3.5-2.4-7.5c-1.6-4-3.2-8.6-4.8-13.7
	c-13.2-32.8-31.8-78.6-55.8-137.4c-24.1-58.8-43.6-106.2-58.7-142.2c-11.6,27.6-26.1,62-43.7,103.2c-17.5,41.1-36.5,87.1-56.7,137.9
	c-3.2,8.7-6.3,16.8-9.2,24.3c-2.9,7.6-4.3,15.2-4.3,22.9c0,5.5,2.7,10.4,8,14.7c5.3,4.3,11.7,8.1,19.1,11.3
	c7.4,3.2,14.6,5.6,21.7,7.2c7.1,1.6,12.9,2.7,17.4,3.4v30.9h-182.1V686z"/>
<path class="st0" d="M1243.5,808.8c9.4-17.8,21.9-32,37.6-42.6c15.7-10.6,33.8-15.9,54.2-15.9c18,0,33.7,3.2,47.3,9.5
	c13.5,6.3,24.7,15,33.4,25.8c8.8,10.9,15.3,23.6,19.6,38.1c4.3,14.5,6.5,29.8,6.5,46c0,14.5-2.3,28.7-6.9,42.7
	c-4.6,14-11.4,26.6-20.3,37.7c-8.6,10.7-19.3,19.4-32.1,26c-12.8,6.6-27.1,9.9-43,9.9c-16.3,0-30.3-2.6-41.9-7.7
	c-11.6-5.1-21.1-12.2-28.3-21.1c-6.9-8.5-12.1-18.4-15.5-29.9c-3.4-11.5-5.1-24-5.1-37.4v-15h148c0-14.7-1.4-28-4.2-40
	c-2.8-12-7.2-22.5-13.3-31.6c-5.9-8.8-13.6-15.7-23.1-20.8c-9.5-5.1-20.9-7.6-34-7.6c-13.4,0-25,3.2-34.8,9.5
	c-9.7,6.3-19.2,17.7-28.2,34.1L1243.5,808.8z M1293.6,894c0,8.4,0.7,17.5,2.2,27.1c1.4,9.6,3.7,17.7,6.9,24.2
	c3.5,6.9,8.2,12.6,14.3,16.9c6,4.4,13.8,6.6,23.3,6.6c15.9,0,29.1-6.6,39.6-19.8c10.5-13.2,16.2-31.5,17.1-55H1293.6z"/>
<path class="st0" d="M3540,381.8c6.7-12.8,15.8-22.5,27.3-29.1c11.5-6.6,23.7-6.5,36.8,0.4c14,7.4,22.9,16.6,26.4,27.8
	c3.6,11.2,3.1,21.1-1.5,29.9c-2.9,5.5-6,10.3-9.2,14.4c-3.2,4.1-6.4,8.1-9.6,12.3c11.8,6.2,28.1,8.7,48.9,7.4
	c20.8-1.2,41.3-7.7,61.6-19.5l113.4-215.9c4.6-8.8,6.7-16.8,6.2-24.1c-0.5-7.3-3.6-14.2-9.5-20.8c-4.9-5.8-12-11.9-21.3-18.4
	c-9.2-6.5-17.4-11.8-24.4-16.2l13-24.8l195.6,102.7l-13,24.8c-6-2.5-12.2-5.2-18.7-7.9c-6.4-2.7-12.3-4.5-17.6-5.4
	c-8.2-1.4-15.5-0.2-21.8,3.6c-6.3,3.9-11.9,10.3-16.6,19.3l-120.2,228.8c-4.1,7.8-6.3,16.4-6.6,25.8c-0.3,9.4,1.6,18.1,5.8,26
	c3.2,5.5,7.7,10.7,13.5,15.5c5.8,4.8,12.3,9.4,19.6,13.9l-13,24.8l-127.7-56.5l-2.5-8l27.5-52.3l-1.9-1
	c-26.2,12.1-51.6,18.5-76.2,19c-24.6,0.5-44.8-3.4-60.6-11.7s-25.9-20.2-30.4-35.7C3528.6,415.5,3530.9,399.1,3540,381.8z"/>
<path class="st2" d="M936,1225.7c6.3-0.6,13.2-3.3,20.5-7.9c7.3-4.7,12.7-11.7,16-21.1c7.6-22.2,14.7-43.3,21.4-63.1
	c6.7-19.9,14.2-42.2,22.6-67c2.7-7.9,5.5-16.3,8.3-25.4c2.8-9.1,5.3-17.8,7.6-26.1h19.3l60.3,164.8l60.4-164.8h18.6
	c11.3,33.5,22.4,66.8,33.2,99.9c10.8,33,20.4,61.8,28.7,86.3c2.4,7.1,7,12.7,13.8,16.8s13.4,6.5,19.7,7.3v15h-99.7v-15.9
	c5-0.2,10.4-1,16.2-2.5c5.8-1.5,8.7-4,8.7-7.5c0-0.6-0.3-1.9-0.8-3.9c-0.5-2-1.2-4.1-1.9-6.3c-4.8-15.8-10.3-33.5-16.4-53.1
	c-6.1-19.5-14-44.9-23.7-76.1l-57,160.7h-22l-58.2-158.5c-6.5,20.2-13,39.8-19.4,58.7c-6.4,18.9-12.1,36.7-16.9,53.3
	c-1.1,3.9-2.1,7.5-3.1,10.8c-1,3.2-1.5,6.5-1.5,9.6c0,2.7,1.2,5.1,3.6,7.3c2.4,2.1,5.4,3.9,8.8,5.2c3,1.2,6.3,2.1,9.9,2.7
	c3.5,0.6,6.2,0.9,7.8,0.9v14.5h-85V1225.7z"/>
<path class="st0" d="M2130.4,709.1c7.1-2.6,13.3-4.6,18.7-6.2c5.4-1.6,11.4-2.4,18.2-2.4c11.8,0,21.2,2.8,28.2,8.3
	s11.5,13.6,13.5,24.1h1.4c9.8-10.9,20.4-19.2,31.6-24.9c11.3-5.7,24.8-8.6,40.7-8.6c16.8,0,30.6,5.1,41.4,15.4
	c10.8,10.3,16.2,23.7,16.2,40.4c0,8.6-1.2,16.3-3.6,23.1c-2.4,6.8-6,12.9-10.9,18.4c-3.8,4.5-8.8,8.6-15,12.1
	c-6.2,3.5-12,6.4-17.5,8.5c-6.8,2.6-20.6,7.3-41.4,14.3c-20.8,6.9-34.8,12.4-42.1,16.3v22.4c0,2,0.4,5.7,1.2,11.3
	c0.8,5.6,2.6,10.9,5.3,15.9c3,5.6,7.3,10.5,12.8,14.6c5.5,4.2,13.3,6.2,23.5,6.2c7,0,13.4-1.2,19.4-3.5c6-2.3,10.2-4.8,12.6-7.4
	c0-3-0.7-7.5-2.2-13.4c-1.4-5.9-2.2-11.3-2.2-16.3c0-5.3,2.4-10.1,7.1-14.5c4.8-4.4,11.4-6.6,19.8-6.6c7.6,0,13.1,2.7,16.7,8
	c3.6,5.4,5.3,11.4,5.3,18c0,6.9-2.5,13.6-7.4,19.9c-4.9,6.3-11.3,12-19.2,17c-6.8,4.2-15,7.8-24.7,10.8c-9.7,2.9-19.1,4.4-28.3,4.4
	c-12.7,0-23.8-0.9-33.2-2.6c-9.4-1.7-18-5.5-25.7-11.2c-7.7-5.6-13.6-13.2-17.6-22.8c-4-9.6-6-22-6-37.1c0-21.6,0.2-40.8,0.7-57.5
	c0.5-16.7,0.7-35,0.7-54.7c0-5.9-1-10.6-3.1-14.1c-2-3.5-5.2-6.4-9.4-8.8c-2.3-1.4-5.9-2.1-10.8-2.3c-4.9-0.2-9.9-0.2-15.1-0.2
	V709.1z M2209.5,828.8c12.9-3.8,24.1-7.5,33.8-11.1c9.7-3.6,18.7-8.2,27-13.6c7.6-5.1,13.5-11.2,17.9-18.3c4.4-7,6.6-15.4,6.6-25.1
	c0-12.6-3.3-21.8-9.9-27.7s-14.9-8.9-25-8.9c-10.7,0-20.2,2.6-28.3,7.8c-8.2,5.2-15,11.4-20.6,18.5L2209.5,828.8z"/>
<path class="st0" d="M1918.6,1066.3c0-7.7,1.9-14.6,5.7-20.5c3.8-6,9.6-9,17.5-9c8.5,0,14.9,2.2,19.4,6.6c4.5,4.4,6.7,9.2,6.7,14.5
	c0,3.3-0.3,6.3-0.8,9.1c-0.5,2.7-1,5.4-1.5,8.2c7.1,0,15.4-2.9,24.9-8.6c9.5-5.7,17.6-13.9,24.3-24.5V911.9c0-5.3-1-9.6-3.1-12.9
	c-2-3.3-5.2-5.8-9.6-7.5c-3.8-1.5-8.6-2.6-14.6-3.4c-6-0.8-11.1-1.3-15.5-1.6v-15h117.9v15c-3.5,0.3-7.1,0.6-10.8,0.9
	c-3.7,0.3-6.9,0.9-9.6,1.8c-4.2,1.4-7.4,3.7-9.4,7.1c-2,3.4-3.1,7.8-3.1,13.2v137.9c0,4.7,1.1,9.3,3.3,13.8
	c2.2,4.5,5.3,8.2,9.2,10.9c2.9,1.8,6.3,3.1,10.2,4c3.9,0.8,8.2,1.4,12.7,1.7v15l-74.4,5l-3.2-3.2v-31.5h-1.1
	c-9.4,12.2-19.8,21.5-31.3,27.9c-11.5,6.3-22,9.5-31.5,9.5s-17.3-3.1-23.2-9.3C1921.6,1085.1,1918.6,1076.7,1918.6,1066.3z"/>
<path class="st0" d="M2475.5,319.4l78.2-5l3.4,3.2v20.9l1.8,0.5c7.8-8.8,17.5-15.9,29.1-21.5s23.4-8.4,35.7-8.4
	c12.7,0,24.9,2.8,36.8,8.5s22.1,13.6,30.9,23.9c8.9,10.4,16,23,21.2,37.6c5.2,14.7,7.8,30.8,7.8,48.5c0,16.2-2.8,31.5-8.4,46
	c-5.6,14.5-13.3,27.2-23.1,38.1c-9.2,10.1-20.5,18.2-33.8,24.3c-13.4,6-27,9.1-40.9,9.1c-10.4,0-20.6-1.3-30.7-4
	c-10-2.6-18.7-6-25.9-10.1v77.9c0,6.4,1.1,12.1,3.2,17.4c2.1,5.2,5.1,9.2,8.8,11.9c4.2,2.9,9.9,5,17.1,6.2
	c7.2,1.3,14.9,2.2,23.2,2.8v14.1l-91.6,5l-3.4-3.4V361.5c0-5.3-1-9.8-3.1-13.5c-2-3.7-5-6.8-9-9.4c-2.9-1.8-7-2.9-12.5-3.4
	c-5.4-0.5-10.4-0.8-15-0.9V319.4z M2557.6,358.6v130.8c1.2,3.9,3.2,8.2,5.9,12.7c2.7,4.5,6.1,8.7,10.2,12.5
	c4.4,3.8,9.5,6.9,15.4,9.4c5.9,2.5,12.7,3.7,20.6,3.7c9.1,0,17.4-2.3,25-7c7.6-4.7,14.4-11.4,20.2-20.2c5.6-8.5,10-19.2,13.2-32.3
	c3.2-13.1,4.9-27.5,4.9-43.4c0-12.7-1.2-24.2-3.6-34.6c-2.4-10.4-6.5-20-12.2-28.9c-5.3-8.5-12-15.3-20.2-20.4
	c-8.2-5.1-18-7.7-29.3-7.7c-12.1,0-22.1,2.6-30,7.9C2569.7,346.4,2563,352.2,2557.6,358.6z"/>
<path class="st0" d="M2908.8,763.3c19-6.8,37.8-8.8,56.5-5.9c18.7,2.8,35.6,11.2,50.6,25c13.2,12.2,22.7,25.2,28.4,39
	c5.7,13.8,8.1,27.7,7.1,41.7c-0.9,13.9-4.7,27.7-11.3,41.3c-6.6,13.6-15.4,26.4-26.4,38.3c-9.8,10.7-21.1,19.6-34,26.8
	c-12.8,7.2-26.3,11.9-40.5,14.1c-13.6,2.1-27.3,1.2-41.2-2.6c-13.8-3.8-26.6-11.1-38.3-21.8c-12-11-20.6-22.4-25.7-34
	c-5.1-11.7-7.3-23.2-6.6-34.7c0.6-10.9,3.5-21.8,8.8-32.5c5.3-10.8,12.4-21.1,21.5-31l10.1-11l109,100.1c9.9-10.8,17.9-21.6,24-32.3
	c6-10.7,9.9-21.4,11.6-32.2c1.6-10.5,0.6-20.8-3-31c-3.6-10.2-10.2-19.7-19.9-28.6c-9.9-9.1-20.6-14.6-32-16.6
	c-11.4-1.9-26.1,0.1-43.8,6L2908.8,763.3z M2888,860c-5.7,6.2-11.3,13.4-16.8,21.4c-5.5,8.1-9.2,15.6-11.3,22.5
	c-2.1,7.5-2.4,14.8-0.9,22.1c1.5,7.3,5.7,14.2,12.8,20.6c11.7,10.7,25.9,14.8,42.5,12.2c16.7-2.6,33.3-12.3,49.8-29L2888,860z"/>
<path class="st0" d="M3628.6,823h108.8v15c-3.5,0.3-7,0.6-10.5,0.9c-3.5,0.3-6.7,0.9-9.4,1.8c-4.2,1.4-7.4,3.7-9.4,7.1
	c-2,3.4-3.1,7.8-3.1,13.3v115.4c0,15.7,3.6,27.8,10.8,36.4c7.2,8.5,16.1,12.8,26.9,12.8c7.4,0,14.4-1.1,20.9-3.4
	c6.5-2.3,12.5-5.4,17.9-9.5c4.4-3.3,8-6.9,11-10.8c2.9-3.9,5.2-7.1,6.7-9.6v-129c0-5.3-0.9-9.6-2.7-13s-4.9-6-9.3-7.8
	c-3.5-1.4-6.6-2.4-9.4-3.1c-2.8-0.7-6.5-1.2-11-1.5v-15h106.5v15c-3.5,0.3-6.8,0.6-10.1,0.9c-3.2,0.3-6.2,0.9-9,1.8
	c-4.2,1.4-7.4,3.7-9.4,7.1c-2,3.4-3.1,7.8-3.1,13.3v115.4c0,15.7,3.6,27.8,10.8,36.4c7.2,8.5,16.2,12.8,26.9,12.8
	c7.4,0,14.4-1.2,20.9-3.5c6.5-2.3,12.5-5.6,18-9.6c4.4-3.3,8.1-7.1,11.1-11.2c3-4.2,5.3-7.3,6.8-9.4V863.8c0-5.1-1.1-9.5-3.2-12.9
	c-2.1-3.5-5.3-6.1-9.5-7.9c-3.2-1.5-6.4-2.6-9.7-3.4c-3.3-0.8-7-1.3-11.1-1.6v-15h108.6v15c-3.5,0.3-7.1,0.6-10.8,0.9
	c-3.7,0.3-6.9,0.9-9.6,1.8c-4.2,1.4-7.4,3.7-9.4,7.1c-2,3.4-3.1,7.8-3.1,13.2v138.8c0,4.8,1.1,9.2,3.3,13c2.2,3.9,5.3,7.1,9.2,9.9
	c2.9,1.8,6.4,3.3,10.7,4.4c4.2,1.1,8.6,1.8,13.1,2.2v15l-74.8,5l-3.2-3.2v-32h-1.6c-3.8,3.8-8.4,8.2-13.8,13.4
	c-5.4,5.1-10.5,9.3-15.2,12.5c-5.3,3.6-11.9,6.6-19.8,9.1c-7.9,2.4-16.5,3.6-25.7,3.6c-14.5,0-27-3.9-37.4-11.7
	c-10.4-7.8-17.9-17.2-22.4-28.2c-5.4,5.3-10.2,9.9-14.4,13.9c-4.2,4-9.6,8.3-16.4,12.8c-5.7,3.9-12.5,7.1-20.3,9.5
	c-7.8,2.4-16.4,3.6-25.9,3.6c-18.9,0-33.8-6.2-44.8-18.6c-11-12.4-16.5-31.4-16.5-57.1V863.4c0-5.3-0.9-9.6-2.7-13s-4.9-6-9.3-7.8
	c-3.5-1.4-6.9-2.4-10.3-3.1s-7.2-1.2-11.4-1.5V823z"/>
<path class="st0" d="M3390.4,827.1c7.1-2.6,13.3-4.6,18.7-6.2c5.4-1.6,11.4-2.4,18.2-2.4c11.8,0,21.2,2.8,28.2,8.3
	s11.5,13.6,13.5,24.1h1.4c9.8-10.9,20.4-19.2,31.6-24.9c11.3-5.7,24.8-8.6,40.7-8.6c16.8,0,30.6,5.1,41.4,15.4
	c10.8,10.3,16.2,23.7,16.2,40.4c0,8.6-1.2,16.3-3.6,23.1c-2.4,6.8-6,12.9-10.9,18.4c-3.8,4.5-8.8,8.6-15,12.1
	c-6.2,3.5-12,6.4-17.5,8.5c-6.8,2.6-20.6,7.3-41.4,14.3c-20.8,6.9-34.8,12.4-42.1,16.3v22.4c0,2,0.4,5.7,1.2,11.3
	c0.8,5.6,2.6,10.9,5.3,15.9c3,5.6,7.3,10.5,12.8,14.6c5.5,4.2,13.3,6.2,23.5,6.2c7,0,13.4-1.2,19.4-3.5c6-2.3,10.2-4.8,12.6-7.4
	c0-3-0.7-7.5-2.2-13.4c-1.4-5.9-2.2-11.3-2.2-16.3c0-5.3,2.4-10.1,7.1-14.5c4.8-4.4,11.4-6.6,19.8-6.6c7.6,0,13.1,2.7,16.7,8
	c3.6,5.4,5.3,11.4,5.3,18c0,6.9-2.5,13.6-7.4,19.9c-4.9,6.3-11.3,12-19.2,17c-6.8,4.2-15,7.8-24.7,10.8c-9.7,2.9-19.1,4.4-28.3,4.4
	c-12.7,0-23.8-0.9-33.2-2.6c-9.4-1.7-18-5.5-25.7-11.2c-7.7-5.6-13.6-13.2-17.6-22.8c-4-9.6-6-22-6-37.1c0-21.6,0.2-40.8,0.7-57.5
	c0.5-16.7,0.7-35,0.7-54.7c0-5.9-1-10.6-3.1-14.1c-2-3.5-5.2-6.4-9.4-8.8c-2.3-1.4-5.9-2.1-10.8-2.3c-4.9-0.2-9.9-0.2-15.1-0.2
	V827.1z M3469.5,946.8c12.9-3.8,24.1-7.5,33.8-11.1c9.7-3.6,18.7-8.2,27-13.6c7.6-5.1,13.5-11.2,17.9-18.3c4.4-7,6.6-15.4,6.6-25.1
	c0-12.6-3.3-21.8-9.9-27.7c-6.6-5.9-14.9-8.9-25-8.9c-10.7,0-20.2,2.6-28.3,7.8c-8.2,5.2-15,11.4-20.6,18.5L3469.5,946.8z"/>
<path class="st0" d="M3121.3,823h109.3v15c-3.5,0.3-7.3,0.6-11.4,0.9c-4.2,0.3-7.6,0.9-10.3,1.8c-4.2,1.4-7.4,3.7-9.4,7.1
	c-2,3.4-3.1,7.8-3.1,13.3v114.9c0,15.9,3.8,28.1,11.2,36.7c7.5,8.6,16.6,12.9,27.4,12.9c8,0,15.4-1.2,22-3.7
	c6.7-2.5,12.6-5.6,17.7-9.2c5-3.5,9-7.2,11.9-11.2c3-4,5.1-7.2,6.5-9.6V863.4c0-5.1-1.1-9.4-3.2-12.7c-2.1-3.3-5.3-5.9-9.5-7.7
	c-3.2-1.5-6.6-2.6-10.3-3.4c-3.7-0.8-7.5-1.3-11.4-1.6v-15h109.5v15c-3.5,0.3-7.1,0.6-10.8,0.9c-3.7,0.3-6.9,0.9-9.6,1.8
	c-4.2,1.4-7.4,3.7-9.4,7.1s-3.1,7.8-3.1,13.2V999c0,5.1,1.1,9.9,3.3,14.1c2.2,4.3,5.3,7.8,9.2,10.5c2.9,1.8,6.3,3.1,10.2,4
	c3.9,0.8,8.2,1.4,12.7,1.7v15l-74.4,5l-3.2-3.2v-31.5h-1.1c-3.6,3.6-8.2,8-13.6,13c-5.4,5.1-10.6,9.2-15.4,12.4
	c-5.6,3.6-12.2,6.6-19.9,9.1c-7.7,2.4-16.4,3.6-26.1,3.6c-21.5,0-37.4-6.7-47.7-20.1c-10.3-13.4-15.5-31.2-15.5-53.4V862.9
	c0-5.3-0.9-9.6-2.7-12.8c-1.8-3.3-4.9-5.8-9.3-7.6c-3.6-1.5-6.8-2.6-9.4-3.2c-2.6-0.6-6.3-1.1-11-1.4V823z"/>
<text transform="matrix(0.9966 -8.207965e-02 8.207965e-02 0.9966 44.9636 1046.8258)" class="st3"><tspan x="0" y="0" class="st0 st4 st5">De verw</tspan><tspan x="2022.2" y="0" class="st2 st4 st5">a</tspan><tspan x="2305.2" y="0" class="st0 st4 st5">rde </tspan><tspan x="3264.8" y="0" class="st2 st4 st5">m</tspan><tspan x="3759.5" y="0" class="st0 st4 st5">an</tspan></text>
<text transform="matrix(1 0 0 1 492.8389 882.4219)" class="st3"><tspan x="0" y="0" class="st0 st4 st6">De verw</tspan><tspan x="1864.9" y="0" class="st2 st4 st6">a</tspan><tspan x="2125.9" y="0" class="st0 st4 st6">rde </tspan><tspan x="3010.8" y="0" class="st2 st4 st6">m</tspan><tspan x="3467.1" y="0" class="st0 st4 st6">an</tspan></text>
<text transform="matrix(1 0 0 1 405.1279 801.8965)"><tspan x="0" y="0" class="st0 st4 st7">De verw</tspan><tspan x="1671.6" y="0" class="st2 st4 st7">a</tspan><tspan x="1905.5" y="0" class="st0 st4 st7">rde </tspan><tspan x="2698.7" y="0" class="st2 st4 st7">m</tspan><tspan x="3107.7" y="0" class="st0 st4 st7">an</tspan></text>
</svg>
