<?xml version="1.0" encoding="utf-8"?>
<!-- Generator: Adobe Illustrator 22.0.1, SVG Export Plug-In . SVG Version: 6.00 Build 0)  -->
<svg version="1.1" id="Laag_1" xmlns="http://www.w3.org/2000/svg" xmlns:xlink="http://www.w3.org/1999/xlink" x="0px" y="0px"
	 viewBox="0 0 283.5 283.5" style="enable-background:new 0 0 283.5 283.5;" xml:space="preserve">
<style type="text/css">
	.st0{filter:url(#Adobe_OpacityMaskFilter);}
	.st1{fill:#FFFFFF;}
	.st2{mask:url(#mask-2_1_);fill:#991782;}
</style>
<g>
	<g>
		<g>
			<defs>
				<filter id="Adobe_OpacityMaskFilter" filterUnits="userSpaceOnUse" x="-0.2" y="0" width="283.5" height="283.5">
					<feColorMatrix  type="matrix" values="1 0 0 0 0  0 1 0 0 0  0 0 1 0 0  0 0 0 1 0"/>
				</filter>
			</defs>
			<mask maskUnits="userSpaceOnUse" x="-0.2" y="0" width="283.5" height="283.5" id="mask-2_1_">
				<g class="st0">
					<polygon id="path-1_1_" class="st1" points="-0.1,283.5 283.3,283.5 283.3,0 -0.1,0 					"/>
				</g>
			</mask>
			<path class="st2" d="M283.3,141.7c0,78.3-63.5,141.7-141.7,141.7C63.3,283.5-0.2,220-0.2,141.7C-0.2,63.5,63.3,0,141.6,0
				C219.9,0,283.3,63.5,283.3,141.7"/>
		</g>
		<path class="st1" d="M230.5,190.9h2.3v6.7c1.9-4.2,5.8-7.3,10.5-7.1v2.5H243c-5.5,0-10.3,4.1-10.3,11.9v9.7h-2.3V190.9
			L230.5,190.9z M220.3,184.7h2.8v-3.1h-2.8V184.7z M220.6,214.7h2.3v-23.8h-2.3V214.7z M192.8,207.8v-0.1c0-4.9,4.2-7.7,10.4-7.7
			c3.3,0,5.6,0.4,7.9,1v-1c0-4.8-2.9-7.3-7.8-7.3c-2.9,0-5.3,0.8-7.5,1.9l-0.8-2c2.6-1.2,5.2-2.1,8.4-2.1c3.2,0,5.8,0.9,7.5,2.6
			c1.6,1.6,2.4,3.8,2.4,6.7v14.8h-2.2v-3.9c-1.6,2.3-4.6,4.5-9.1,4.5C197.6,215.2,192.8,212.7,192.8,207.8L192.8,207.8z
			 M211.1,205.8v-2.7c-2-0.5-4.7-1.1-8.1-1.1c-5,0-7.8,2.2-7.8,5.5v0.1c0,3.4,3.3,5.4,6.9,5.4C207,213.1,211.1,210.1,211.1,205.8
			L211.1,205.8z"/>
		<path class="st1" d="M65.7,146.2c0,0-1.6-0.1-2-0.2c-0.4-0.1-1.3-0.4-1.3-0.8c0,0,0,0,0,0v0v0c0,0,0,0,0,0c0-0.4,0.9-0.7,1.3-0.8
			c0.4-0.1,2-0.2,2-0.2l33.9-1.5l7.5-24.8c0,0,0-0.1,0-0.1c0.1-0.3,0.1-0.6,0.1-1c0-1.9-1.5-3.5-3.5-3.5H86.9c-1.6,0-2.9,1-3.3,2.4
			c0,0.1-0.1,0.2-0.1,0.3l-5.9,22.4l-6.7-22.5l-0.2-0.8c-0.5-1.2-1.8-2.1-3.2-2.1H52.1c-1.5,0-2.9,1-3.3,2.4L42,138.2l-5.6-22.2
			c0-0.1-0.1-0.2-0.1-0.3c-0.4-1.4-1.8-2.4-3.3-2.4H15.8c-1.9,0-3.5,1.6-3.5,3.5c0,0.4,0,0.7,0.2,1L29,173.1l0.1,0.2
			c0.5,1.4,1.8,2.3,3.3,2.3h16.3c1.6,0,2.9-1,3.3-2.4l7.7-24.1l7.5,23.9c0,0.1,0,0.1,0,0.1l0.1,0.2c0,0,0,0.1,0,0.1
			c0.5,1.2,1.8,2.1,3.2,2.1H87c1.5,0,2.7-0.9,3.2-2.2l0.2-0.5c0,0,0,0,0-0.1l7.7-25.4L65.7,146.2"/>
		<path class="st1" d="M131.1,141.3c0.9-3.9,3.7-6.9,7.2-7.8c0.1-1.7,1.1-11.9,1.3-12.5c0.3-0.7,0.9-0.7,1-0.7h0.1h0.1
			c0.1,0,0.8,0,1,0.7c0.3,0.7,1.2,10.8,1.3,12.5c3.5,1,6.2,4,7.2,7.8l25.2,1.1c0-0.2,0-0.3,0-0.3c-1-16.6-15.1-30.2-34.6-30.2
			c-19.7,0-33.9,13.9-34.8,30.6L131.1,141.3"/>
		<path class="st1" d="M149.8,148.7c-1.6,3.8-5,6.5-9.1,6.5c-4,0-7.5-2.7-9.1-6.5l-25.5-1c1.7,16,15.5,28.9,34.5,28.9
			c19,0,32.9-13,34.7-28.9L149.8,148.7"/>
		<path class="st1" d="M266,113.3h-16.9c-1.6,0-2.9,1-3.3,2.4c0,0.1-0.1,0.2-0.1,0.3l-5.9,22.4l-6.7-22.5l-0.2-0.8
			c-0.5-1.2-1.7-2.1-3.2-2.1h-15.4c-1.6,0-2.9,1-3.3,2.4l-6.7,22.7l-5.6-22.2c0-0.1-0.1-0.2-0.1-0.3c-0.4-1.4-1.8-2.4-3.3-2.4H178
			c-1.9,0-3.5,1.6-3.5,3.5c0,0.4,0.1,0.7,0.2,1l7.5,24.9l33.7,1.5c0,0,1.6,0.1,2,0.2c0.4,0.1,1.3,0.4,1.3,0.8c0,0,0,0,0,0v0v0
			c0,0,0,0,0,0c0,0.4-0.9,0.7-1.3,0.8c-0.4,0.1-2,0.2-2,0.2l-32.3,1.2l7.7,25.6l0.1,0.2c0.5,1.4,1.8,2.4,3.3,2.4h16.3
			c1.6,0,2.9-1,3.3-2.4l7.7-24.1l7.4,23.9c0,0.1,0,0.1,0.1,0.1l0.1,0.2c0,0.1,0,0.1,0,0.1c0.5,1.2,1.8,2.1,3.2,2.1h16.4
			c1.5,0,2.7-0.9,3.2-2.2l0.2-0.5c0,0,0,0,0-0.1l16.7-55c0,0,0-0.1,0-0.1c0.1-0.3,0.1-0.6,0.1-1C269.4,114.8,267.9,113.3,266,113.3"
			/>
	</g>
</g>
</svg>
