<?xml version="1.0" encoding="utf-8"?>
<!-- Generator: Adobe Illustrator 22.0.1, SVG Export Plug-In . SVG Version: 6.00 Build 0)  -->
<svg version="1.1" id="Capa_1" xmlns="http://www.w3.org/2000/svg" xmlns:xlink="http://www.w3.org/1999/xlink" x="0px" y="0px"
	 viewBox="0 0 586.4 405.2" style="enable-background:new 0 0 586.4 405.2;" xml:space="preserve">
<style type="text/css">
	.st0{fill:#FFFFFF;}
	.st1{fill:none;stroke:#FFFFFF;stroke-width:29.6717;stroke-miterlimit:10;}
	.st2{fill:#961B80;stroke:#FFFFFF;stroke-width:23.8703;stroke-miterlimit:10;}
</style>
<path class="st0" d="M135.2,130.5l-31.8-17.1v100.1c0,1.9-1.1,3.5-2.5,3.5H75.3c-1.4,0-2.6-1.6-2.6-3.5V113.5l-31.8,17.1
	c-1.1,0.6-2.3,0.1-3-1.1c-0.3-0.6-0.5-1.4-0.5-2.1c0-0.7,0.2-1.5,0.5-2.1l48.1-84.9c0.5-0.9,1.2-1.4,2-1.4c0.8,0,1.5,0.5,2,1.4
	l48.1,84.9c0.7,1.2,0.7,3,0,4.2C137.5,130.7,136.3,131.1,135.2,130.5z"/>
<path class="st0" d="M138.2,276.5c0.7,1.2,0.7,3,0,4.2l-48.1,84.9c-0.5,0.9-1.2,1.4-2,1.4c-0.8,0-1.5-0.5-2-1.4L38,280.7
	c-0.4-0.6-0.5-1.4-0.5-2.1c0-0.7,0.2-1.5,0.5-2.1c0.7-1.2,1.9-1.7,3-1.1l31.8,17.1V192.4c0-1.9,1.1-3.5,2.6-3.5h25.5
	c1.4,0,2.5,1.6,2.5,3.5v100.1l31.8-17.1C136.3,274.8,137.5,275.3,138.2,276.5z"/>
<g>
	<g>
		<line class="st1" x1="189.6" y1="326" x2="580.4" y2="326"/>
		<circle class="st2" cx="292" cy="326" r="37"/>
	</g>
	<g>
		<line class="st1" x1="189.6" y1="198.7" x2="580.4" y2="198.7"/>
		<circle class="st2" cx="487.3" cy="198.7" r="37"/>
	</g>
	<g>
		<line class="st1" x1="189.6" y1="71.5" x2="580.4" y2="71.5"/>
		<circle class="st2" cx="288.1" cy="71.5" r="37"/>
	</g>
</g>
</svg>
